<svg xmlns="http://www.w3.org/2000/svg" width="192" height="192" viewBox="0 0 192 192">
<g>
<path d="M 80.54 191.98 L 136.26 136.26 L 191.95 80.57 C191.98,85.54 191.99,90.95 191.99,96.80 C191.98,148.45 191.96,148.62 185.47,161.75 C178.77,175.32 164.84,186.31 149.00,190.51 C144.15,191.80 109.13,192.28 80.54,191.98 ZM 191.23 47.72 C190.43,41.81 188.86,37.50 185.91,31.30 C185.34,30.12 184.73,28.95 184.08,27.81 C187.32,33.17 189.71,38.98 190.91,44.80 C191.03,45.36 191.13,46.34 191.23,47.72 Z" fill="rgba(58,21,177,1)"/>
<path d="M 43.00 190.42 C41.20,189.95 39.44,189.41 37.72,188.79 C37.39,188.30 36.12,186.97 34.48,185.41 L 30.68 181.83 L 78.82 133.68 L 81.85 134.94 C84.14,135.89 85.89,138.14 89.02,144.15 C93.09,151.98 93.22,152.11 96.66,151.81 L 100.16 151.50 L 119.63 116.00 C130.35,96.47 140.52,78.25 142.25,75.50 C148.24,65.95 157.90,54.43 169.84,42.59 L 181.86 30.67 L 183.91 33.09 C185.04,34.41 186.88,36.62 188.00,38.00 C188.74,38.90 189.16,39.36 189.24,39.21 C191.52,45.85 192.00,52.11 192.00,65.31 L 192.00 80.52 L 136.26 136.26 L 80.52 192.00 L 64.51 191.93 C53.96,191.89 46.63,191.38 43.00,190.42 ZM 30.11 185.42 C16.74,178.73 6.79,166.28 2.10,150.39 C7.18,167.60 18.31,180.44 33.83,187.24 C32.71,186.71 31.44,186.08 30.11,185.42 ZM 137.41 0.51 C128.79,0.08 116.03,0.05 95.21,0.04 C116.03,0.05 128.79,0.08 137.41,0.51 ZM 165.04 8.32 C163.93,7.66 162.78,7.04 161.61,6.46 C161.65,6.48 161.69,6.50 161.73,6.52 C162.86,7.07 163.96,7.67 165.04,8.32 Z" fill="rgba(88,18,189,1)"/>
<path d="M 30.11 185.42 C19.51,180.11 11.05,171.19 5.67,159.79 C6.06,160.01 6.09,158.67 5.68,155.70 L 5.09 151.39 L 32.30 124.20 C47.27,109.24 59.78,97.00 60.11,97.00 C61.46,97.00 65.87,101.92 68.44,106.31 C69.95,108.89 71.56,111.00 72.00,111.00 C72.45,111.00 76.05,105.34 80.00,98.43 L 87.18 85.86 L 85.09 80.99 C83.94,78.32 83.00,75.54 83.00,74.81 C83.00,74.08 98.45,58.05 117.33,39.17 L 151.66 4.85 L 160.50 5.93 L 157.00 4.34 C155.94,3.85 154.95,3.43 153.94,3.05 C156.39,3.91 158.69,5.01 161.58,6.44 C173.12,12.15 182.06,21.83 187.47,34.50 C189.71,39.74 189.78,40.18 188.00,38.00 C186.88,36.62 185.04,34.41 183.91,33.09 L 181.86 30.67 L 169.84 42.59 C157.90,54.43 148.24,65.95 142.25,75.50 C140.90,77.65 134.40,89.24 126.50,103.52 C134.04,89.72 139.68,79.23 140.06,78.28 C140.54,77.05 144.97,68.73 149.90,59.78 C154.84,50.82 159.18,42.71 159.55,41.75 C160.16,40.13 159.11,40.00 145.63,40.00 C131.61,40.00 130.99,40.09 129.59,42.25 C128.78,43.49 117.54,63.58 104.60,86.90 L 81.08 129.30 L 87.15 140.70 L 87.36 141.09 C85.20,137.32 83.70,135.70 81.85,134.94 L 78.82 133.68 L 30.68 181.83 L 34.48 185.41 C36.57,187.39 38.05,189.00 37.77,189.00 C37.50,189.00 34.05,187.39 30.11,185.42 ZM 110.99 131.75 L 100.16 151.50 L 96.97 151.78 C99.58,151.53 100.43,150.81 110.99,131.75 ZM 95.21 0.04 C114.81,0.05 127.27,0.08 135.85,0.44 C127.44,0.11 114.98,0.05 95.21,0.04 ZM 2.53 151.70 C2.71,152.29 2.89,152.86 3.06,153.39 C2.72,152.40 2.40,151.40 2.10,150.39 C1.93,149.83 1.78,149.30 1.64,148.77 Z" fill="rgba(118,17,201,1)"/>
<path d="M 80.10 0.03 C84.52,0.03 89.53,0.03 95.21,0.04 C144.00,0.07 148.27,0.37 157.00,4.34 L 160.50 5.93 L 151.66 4.85 L 117.33 39.17 C98.45,58.05 83.00,74.08 83.00,74.81 C83.00,75.54 83.94,78.32 85.09,80.99 L 86.28 83.76 L 85.03 81.55 C80.58,73.72 65.45,45.47 64.23,42.70 C63.56,41.16 63.00,39.13 63.00,38.19 C63.00,37.25 70.88,28.61 80.50,19.00 C90.12,9.39 98.00,1.18 98.00,0.76 C98.00,0.42 90.42,0.13 80.10,0.03 ZM 2.53 151.70 L 0.30 144.39 C0.40,144.63 0.52,144.60 0.66,144.25 C0.94,143.56 0.94,142.44 0.66,141.75 C0.38,141.06 0.16,141.62 0.16,143.00 C0.16,143.56 0.20,143.98 0.26,144.24 L 0.00 143.40 L 0.00 73.30 C0.00,86.89 0.34,98.00 0.76,98.00 C1.18,98.00 9.84,89.68 20.00,79.50 C30.16,69.32 39.07,61.00 39.80,61.00 C42.40,61.00 47.08,67.65 56.61,84.92 C61.95,94.59 67.41,104.41 68.75,106.75 C69.24,107.61 69.75,108.41 70.22,109.08 C69.67,108.30 69.05,107.34 68.44,106.31 C65.87,101.92 61.46,97.00 60.11,97.00 C59.78,97.00 47.27,109.24 32.30,124.20 L 5.09 151.39 L 5.68 155.70 C6.60,162.43 5.30,160.77 2.53,151.70 ZM 2.47 40.50 C0.13,48.18 0.00,49.89 0.00,73.30 L 0.00 48.60 L 2.47 40.50 ZM 41.21 2.12 C41.92,1.90 42.58,1.70 43.24,1.52 C42.59,1.70 41.92,1.90 41.21,2.12 Z" fill="rgba(145,15,212,1)"/>
<path d="M 52.34 77.34 C45.61,65.67 41.98,61.00 39.80,61.00 C39.07,61.00 30.16,69.32 20.00,79.50 C9.84,89.68 1.18,98.00 0.76,98.00 C0.34,98.00 0.00,86.89 0.00,73.30 C0.00,49.89 0.13,48.18 2.47,40.50 C8.28,21.44 21.48,8.37 41.21,2.12 C47.31,0.19 50.20,0.00 72.96,0.00 C86.73,0.00 98.00,0.34 98.00,0.76 C98.00,1.18 90.12,9.39 80.50,19.00 C70.88,28.61 63.00,37.25 63.00,38.19 C63.00,39.13 63.56,41.16 64.23,42.70 C65.45,45.47 80.58,73.72 85.03,81.55 L 87.33 85.60 L 85.01 81.55 C83.74,79.32 79.13,70.97 74.78,63.00 C70.42,55.03 65.51,46.59 63.86,44.25 L 60.87 40.00 L 46.93 40.00 C36.76,40.00 33.00,40.32 33.00,41.20 C33.00,41.79 42.50,59.43 52.34,77.34 ZM 0.16 143.00 C0.16,141.62 0.38,141.06 0.66,141.75 C0.94,142.44 0.94,143.56 0.66,144.25 C0.38,144.94 0.16,144.38 0.16,143.00 ZM 68.75 106.75 C68.61,106.49 68.41,106.15 68.17,105.72 C68.37,106.07 68.56,106.42 68.76,106.75 C69.93,108.80 71.19,110.52 71.79,110.91 C71.19,110.52 69.93,108.80 68.75,106.75 Z" fill="rgba(175,16,224,1)"/>
<path d="M 87.15 140.70 L 81.08 129.30 L 104.60 86.90 C117.54,63.58 128.78,43.49 129.59,42.25 C130.99,40.09 131.61,40.00 145.63,40.00 C159.11,40.00 160.16,40.13 159.55,41.75 C159.18,42.71 154.84,50.82 149.90,59.78 C144.97,68.73 140.54,77.05 140.06,78.28 C139.57,79.50 130.40,96.47 119.67,116.00 C100.18,151.46 100.15,151.50 96.69,151.80 L 93.22 152.11 L 87.15 140.70 ZM 68.76 106.75 C57.73,87.49 33.00,42.16 33.00,41.20 C33.00,40.32 36.76,40.00 46.93,40.00 L 60.87 40.00 L 63.86 44.25 C65.51,46.59 70.42,55.03 74.78,63.00 C79.13,70.97 83.74,79.32 85.01,81.55 L 87.33 85.60 L 80.07 98.30 C76.08,105.29 72.45,111.00 72.00,111.00 C71.56,111.00 70.09,109.09 68.76,106.75 Z" fill="rgba(252,249,253,1)"/>
</g>
</svg>